<svg width="7" height="9" viewBox="0 0 7 9" fill="none" xmlns="http://www.w3.org/2000/svg">
<path d="M6.11733 7.86551C5.58417 8.59859 4.83628 8.96514 3.87364 8.96514C2.911 8.96514 2.1594 8.59859 1.61884 7.86551C1.08569 7.13242 0.81911 6.15497 0.81911 4.93316C0.81911 3.71135 1.08569 2.7339 1.61884 2.00082C2.1594 1.26773 2.911 0.901185 3.87364 0.901185C4.83628 0.901185 5.58417 1.26773 6.11733 2.00082C6.65788 2.7339 6.92816 3.71135 6.92816 4.93316C6.92816 6.15497 6.65788 7.13242 6.11733 7.86551ZM3.87364 7.72111C4.45122 7.72111 4.89181 7.48045 5.19541 6.99913C5.49902 6.51781 5.65082 5.82915 5.65082 4.93316C5.65082 4.03717 5.49902 3.34851 5.19541 2.86719C4.89181 2.38587 4.45122 2.14521 3.87364 2.14521C3.30346 2.14521 2.86287 2.38587 2.55186 2.86719C2.24826 3.34851 2.09646 4.03717 2.09646 4.93316C2.09646 5.82915 2.24826 6.51781 2.55186 6.99913C2.86287 7.48045 3.30346 7.72111 3.87364 7.72111Z" fill="white"/>
</svg>
