<svg width="28" height="28" viewBox="0 0 28 28" fill="none" xmlns="http://www.w3.org/2000/svg">
<path fill-rule="evenodd" clip-rule="evenodd" d="M7.46678 14H10.2668C10.7801 14 11.2001 13.58 11.2001 13.0667V9.33333C11.2001 8.81999 10.7801 8.39999 10.2668 8.39999H7.46678C6.95345 8.39999 6.53345 8.81999 6.53345 9.33333V13.0667C6.53345 13.58 6.95345 14 7.46678 14ZM7.46678 20.5333H10.2668C10.7801 20.5333 11.2001 20.1133 11.2001 19.6V15.8667C11.2001 15.3533 10.7801 14.9333 10.2668 14.9333H7.46678C6.95345 14.9333 6.53345 15.3533 6.53345 15.8667V19.6C6.53345 20.1133 6.95345 20.5333 7.46678 20.5333ZM13.0668 20.5333H15.8668C16.3801 20.5333 16.8001 20.1133 16.8001 19.6V15.8667C16.8001 15.3533 16.3801 14.9333 15.8668 14.9333H13.0668C12.5534 14.9333 12.1334 15.3533 12.1334 15.8667V19.6C12.1334 20.1133 12.5534 20.5333 13.0668 20.5333ZM18.6668 20.5333H21.4668C21.9801 20.5333 22.4001 20.1133 22.4001 19.6V15.8667C22.4001 15.3533 21.9801 14.9333 21.4668 14.9333H18.6668C18.1534 14.9333 17.7334 15.3533 17.7334 15.8667V19.6C17.7334 20.1133 18.1534 20.5333 18.6668 20.5333ZM13.0668 14H15.8668C16.3801 14 16.8001 13.58 16.8001 13.0667V9.33333C16.8001 8.81999 16.3801 8.39999 15.8668 8.39999H13.0668C12.5534 8.39999 12.1334 8.81999 12.1334 9.33333V13.0667C12.1334 13.58 12.5534 14 13.0668 14ZM17.7334 9.33333V13.0667C17.7334 13.58 18.1534 14 18.6668 14H21.4668C21.9801 14 22.4001 13.58 22.4001 13.0667V9.33333C22.4001 8.81999 21.9801 8.39999 21.4668 8.39999H18.6668C18.1534 8.39999 17.7334 8.81999 17.7334 9.33333Z" fill="#C3CAD9"/>
</svg>
