<svg width="28" height="28" viewBox="0 0 28 28" fill="none" xmlns="http://www.w3.org/2000/svg">
<path fill-rule="evenodd" clip-rule="evenodd" d="M7.46678 16.8H20.5334C21.0468 16.8 21.4668 16.38 21.4668 15.8667C21.4668 15.3533 21.0468 14.9333 20.5334 14.9333H7.46678C6.95345 14.9333 6.53345 15.3533 6.53345 15.8667C6.53345 16.38 6.95345 16.8 7.46678 16.8ZM7.46678 20.5333H20.5334C21.0468 20.5333 21.4668 20.1133 21.4668 19.6C21.4668 19.0867 21.0468 18.6667 20.5334 18.6667H7.46678C6.95345 18.6667 6.53345 19.0867 6.53345 19.6C6.53345 20.1133 6.95345 20.5333 7.46678 20.5333ZM7.46678 13.0667H20.5334C21.0468 13.0667 21.4668 12.6467 21.4668 12.1333C21.4668 11.62 21.0468 11.2 20.5334 11.2H7.46678C6.95345 11.2 6.53345 11.62 6.53345 12.1333C6.53345 12.6467 6.95345 13.0667 7.46678 13.0667ZM6.53345 8.40001C6.53345 8.91334 6.95345 9.33334 7.46678 9.33334H20.5334C21.0468 9.33334 21.4668 8.91334 21.4668 8.40001C21.4668 7.88667 21.0468 7.46667 20.5334 7.46667H7.46678C6.95345 7.46667 6.53345 7.88667 6.53345 8.40001Z" fill="#C3CAD9"/>
</svg>
