<svg width="28" height="28" viewBox="0 0 28 28" fill="none" xmlns="http://www.w3.org/2000/svg">
<path fill-rule="evenodd" clip-rule="evenodd" d="M13.0666 19.6H14.9333C15.4466 19.6 15.8666 19.18 15.8666 18.6667C15.8666 18.1533 15.4466 17.7333 14.9333 17.7333H13.0666C12.5533 17.7333 12.1333 18.1533 12.1333 18.6667C12.1333 19.18 12.5533 19.6 13.0666 19.6ZM5.59998 9.33333C5.59998 9.84666 6.01998 10.2667 6.53331 10.2667H21.4666C21.98 10.2667 22.4 9.84666 22.4 9.33333C22.4 8.81999 21.98 8.39999 21.4666 8.39999H6.53331C6.01998 8.39999 5.59998 8.81999 5.59998 9.33333ZM9.33331 14.9333H18.6666C19.18 14.9333 19.6 14.5133 19.6 14C19.6 13.4867 19.18 13.0667 18.6666 13.0667H9.33331C8.81998 13.0667 8.39998 13.4867 8.39998 14C8.39998 14.5133 8.81998 14.9333 9.33331 14.9333Z" fill="#C3CAD9"/>
</svg>
