<svg width="38" height="10" viewBox="0 0 38 10" fill="none" xmlns="http://www.w3.org/2000/svg">
<path d="M5.04492 6.73242C5.04492 6.59961 5.02539 6.48047 4.98633 6.375C4.94727 6.26562 4.875 6.16406 4.76953 6.07031C4.66406 5.97656 4.51172 5.88281 4.3125 5.78906C4.11719 5.69141 3.85938 5.58984 3.53906 5.48438C3.16406 5.35938 2.80273 5.21875 2.45508 5.0625C2.10742 4.90234 1.79688 4.7168 1.52344 4.50586C1.25 4.29102 1.0332 4.04102 0.873047 3.75586C0.712891 3.4668 0.632812 3.13086 0.632812 2.74805C0.632812 2.38086 0.714844 2.05078 0.878906 1.75781C1.04297 1.46094 1.27148 1.20898 1.56445 1.00195C1.86133 0.791016 2.20898 0.630859 2.60742 0.521484C3.00586 0.408203 3.44141 0.351562 3.91406 0.351562C4.53906 0.351562 5.08984 0.460938 5.56641 0.679688C6.04688 0.894531 6.42188 1.20117 6.69141 1.59961C6.96484 1.99414 7.10156 2.46094 7.10156 3H5.05664C5.05664 2.78516 5.01172 2.5957 4.92188 2.43164C4.83594 2.26758 4.70508 2.13867 4.5293 2.04492C4.35352 1.95117 4.13281 1.9043 3.86719 1.9043C3.60938 1.9043 3.39258 1.94336 3.2168 2.02148C3.04102 2.09961 2.9082 2.20508 2.81836 2.33789C2.72852 2.4668 2.68359 2.60938 2.68359 2.76562C2.68359 2.89453 2.71875 3.01172 2.78906 3.11719C2.86328 3.21875 2.9668 3.31445 3.09961 3.4043C3.23633 3.49414 3.40039 3.58008 3.5918 3.66211C3.78711 3.74414 4.00586 3.82422 4.24805 3.90234C4.70117 4.04688 5.10352 4.20898 5.45508 4.38867C5.81055 4.56445 6.10938 4.76562 6.35156 4.99219C6.59766 5.21484 6.7832 5.46875 6.9082 5.75391C7.03711 6.03906 7.10156 6.36133 7.10156 6.7207C7.10156 7.10352 7.02734 7.44336 6.87891 7.74023C6.73047 8.03711 6.51758 8.28906 6.24023 8.49609C5.96289 8.69922 5.63086 8.85352 5.24414 8.95898C4.85742 9.06445 4.42578 9.11719 3.94922 9.11719C3.51172 9.11719 3.08008 9.0625 2.6543 8.95312C2.23242 8.83984 1.84961 8.66797 1.50586 8.4375C1.16211 8.20312 0.886719 7.9043 0.679688 7.54102C0.476562 7.17383 0.375 6.73828 0.375 6.23438H2.4375C2.4375 6.48438 2.4707 6.69531 2.53711 6.86719C2.60352 7.03906 2.70117 7.17773 2.83008 7.2832C2.95898 7.38477 3.11719 7.45898 3.30469 7.50586C3.49219 7.54883 3.70703 7.57031 3.94922 7.57031C4.21094 7.57031 4.42188 7.5332 4.58203 7.45898C4.74219 7.38086 4.85938 7.2793 4.93359 7.1543C5.00781 7.02539 5.04492 6.88477 5.04492 6.73242ZM11.1387 9.11719C10.623 9.11719 10.1621 9.03711 9.75586 8.87695C9.34961 8.71289 9.00586 8.48828 8.72461 8.20312C8.44727 7.91797 8.23438 7.58984 8.08594 7.21875C7.94141 6.84766 7.86914 6.45508 7.86914 6.04102V5.81836C7.86914 5.35352 7.93359 4.92383 8.0625 4.5293C8.19141 4.13086 8.38281 3.7832 8.63672 3.48633C8.89062 3.18945 9.20898 2.95898 9.5918 2.79492C9.97461 2.62695 10.4199 2.54297 10.9277 2.54297C11.377 2.54297 11.7793 2.61523 12.1348 2.75977C12.4902 2.9043 12.791 3.11133 13.0371 3.38086C13.2871 3.65039 13.4766 3.97656 13.6055 4.35938C13.7383 4.74219 13.8047 5.17188 13.8047 5.64844V6.45117H8.625V5.21484H11.877V5.0625C11.8809 4.85156 11.8438 4.67188 11.7656 4.52344C11.6914 4.375 11.582 4.26172 11.4375 4.18359C11.293 4.10547 11.1172 4.06641 10.9102 4.06641C10.6953 4.06641 10.5176 4.11328 10.377 4.20703C10.2402 4.30078 10.1328 4.42969 10.0547 4.59375C9.98047 4.75391 9.92773 4.93945 9.89648 5.15039C9.86523 5.36133 9.84961 5.58398 9.84961 5.81836V6.04102C9.84961 6.27539 9.88086 6.48828 9.94336 6.67969C10.0098 6.87109 10.1035 7.03516 10.2246 7.17188C10.3496 7.30469 10.498 7.4082 10.6699 7.48242C10.8457 7.55664 11.0449 7.59375 11.2676 7.59375C11.5371 7.59375 11.8027 7.54297 12.0645 7.44141C12.3262 7.33984 12.5508 7.17188 12.7383 6.9375L13.6348 8.00391C13.5059 8.1875 13.3223 8.36523 13.084 8.53711C12.8496 8.70898 12.5684 8.84961 12.2402 8.95898C11.9121 9.06445 11.5449 9.11719 11.1387 9.11719ZM17.9004 7.40625V4.79297C17.9004 4.61328 17.875 4.45898 17.8242 4.33008C17.7734 4.20117 17.6934 4.10156 17.584 4.03125C17.4746 3.95703 17.3281 3.91992 17.1445 3.91992C16.9961 3.91992 16.8691 3.94531 16.7637 3.99609C16.6582 4.04688 16.5781 4.12305 16.5234 4.22461C16.4688 4.32617 16.4414 4.45508 16.4414 4.61133H14.4668C14.4668 4.31836 14.5312 4.04688 14.6602 3.79688C14.793 3.54297 14.9805 3.32227 15.2227 3.13477C15.4688 2.94727 15.7617 2.80273 16.1016 2.70117C16.4453 2.5957 16.8281 2.54297 17.25 2.54297C17.7539 2.54297 18.2031 2.62695 18.5977 2.79492C18.9961 2.96289 19.3105 3.21484 19.541 3.55078C19.7715 3.88281 19.8867 4.30078 19.8867 4.80469V7.40039C19.8867 7.81445 19.9102 8.12891 19.957 8.34375C20.0039 8.55469 20.0703 8.74023 20.1562 8.90039V9H18.1758C18.082 8.80469 18.0117 8.56641 17.9648 8.28516C17.9219 8 17.9004 7.70703 17.9004 7.40625ZM18.1406 5.12695L18.1523 6.18164H17.2793C17.0957 6.18164 16.9395 6.20703 16.8105 6.25781C16.6855 6.30859 16.584 6.37891 16.5059 6.46875C16.4316 6.55469 16.377 6.65234 16.3418 6.76172C16.3105 6.87109 16.2949 6.98633 16.2949 7.10742C16.2949 7.22461 16.3223 7.33008 16.377 7.42383C16.4355 7.51367 16.5137 7.58398 16.6113 7.63477C16.709 7.68555 16.8184 7.71094 16.9395 7.71094C17.1582 7.71094 17.3438 7.66992 17.4961 7.58789C17.6523 7.50195 17.7715 7.39844 17.8535 7.27734C17.9355 7.15625 17.9766 7.04297 17.9766 6.9375L18.4102 7.74609C18.332 7.90234 18.2422 8.06055 18.1406 8.2207C18.043 8.38086 17.9199 8.5293 17.7715 8.66602C17.627 8.79883 17.4492 8.9082 17.2383 8.99414C17.0273 9.07617 16.7715 9.11719 16.4707 9.11719C16.0801 9.11719 15.7207 9.03711 15.3926 8.87695C15.0684 8.7168 14.8086 8.49414 14.6133 8.20898C14.418 7.91992 14.3203 7.58789 14.3203 7.21289C14.3203 6.88477 14.3789 6.5918 14.4961 6.33398C14.6172 6.07617 14.7988 5.85742 15.041 5.67773C15.2832 5.49805 15.5918 5.36133 15.9668 5.26758C16.3418 5.17383 16.7832 5.12695 17.291 5.12695H18.1406ZM22.9746 4.23047V9H21V2.66016H22.8457L22.9746 4.23047ZM24.8496 2.61328L24.8145 4.44727C24.7363 4.43945 24.6309 4.42969 24.498 4.41797C24.3652 4.40625 24.2539 4.40039 24.1641 4.40039C23.9336 4.40039 23.7344 4.42773 23.5664 4.48242C23.4023 4.5332 23.2656 4.61133 23.1562 4.7168C23.0508 4.81836 22.9727 4.94727 22.9219 5.10352C22.875 5.25977 22.8535 5.44141 22.8574 5.64844L22.5 5.41406C22.5 4.98828 22.541 4.60156 22.623 4.25391C22.709 3.90234 22.8301 3.59961 22.9863 3.3457C23.1426 3.08789 23.332 2.89062 23.5547 2.75391C23.7773 2.61328 24.0273 2.54297 24.3047 2.54297C24.4023 2.54297 24.498 2.54883 24.5918 2.56055C24.6895 2.57227 24.7754 2.58984 24.8496 2.61328ZM28.0898 7.59375C28.2734 7.59375 28.4297 7.56055 28.5586 7.49414C28.6914 7.42383 28.791 7.32617 28.8574 7.20117C28.9277 7.07227 28.9609 6.91797 28.957 6.73828H30.8145C30.8184 7.21484 30.7012 7.63281 30.4629 7.99219C30.2285 8.34766 29.9082 8.625 29.502 8.82422C29.0996 9.01953 28.6445 9.11719 28.1367 9.11719C27.6406 9.11719 27.207 9.03711 26.8359 8.87695C26.4648 8.71289 26.1543 8.48633 25.9043 8.19727C25.6582 7.9043 25.4727 7.5625 25.3477 7.17188C25.2266 6.78125 25.166 6.35742 25.166 5.90039V5.76562C25.166 5.30859 25.2266 4.88477 25.3477 4.49414C25.4727 4.09961 25.6582 3.75781 25.9043 3.46875C26.1543 3.17578 26.4629 2.94922 26.8301 2.78906C27.2012 2.625 27.6328 2.54297 28.125 2.54297C28.6523 2.54297 29.1172 2.64258 29.5195 2.8418C29.9258 3.04102 30.2441 3.33008 30.4746 3.70898C30.7051 4.08789 30.8184 4.54688 30.8145 5.08594H28.957C28.9609 4.89453 28.9316 4.72266 28.8691 4.57031C28.8066 4.41797 28.709 4.29688 28.5762 4.20703C28.4473 4.11328 28.2812 4.06641 28.0781 4.06641C27.875 4.06641 27.7109 4.11133 27.5859 4.20117C27.4609 4.29102 27.3652 4.41602 27.2988 4.57617C27.2363 4.73242 27.1934 4.91211 27.1699 5.11523C27.1504 5.31836 27.1406 5.53516 27.1406 5.76562V5.90039C27.1406 6.13477 27.1504 6.35547 27.1699 6.5625C27.1934 6.76562 27.2383 6.94531 27.3047 7.10156C27.3711 7.25391 27.4668 7.375 27.5918 7.46484C27.7168 7.55078 27.8828 7.59375 28.0898 7.59375ZM33.5918 0V9H31.6172V0H33.5918ZM33.3574 5.61328L32.8945 5.625C32.8945 5.17969 32.9492 4.76953 33.0586 4.39453C33.168 4.01953 33.3242 3.69336 33.5273 3.41602C33.7305 3.13867 33.9746 2.92383 34.2598 2.77148C34.5449 2.61914 34.8613 2.54297 35.209 2.54297C35.5215 2.54297 35.8066 2.58789 36.0645 2.67773C36.3262 2.76758 36.5508 2.91211 36.7383 3.11133C36.9297 3.31055 37.0762 3.57031 37.1777 3.89062C37.2832 4.21094 37.3359 4.60156 37.3359 5.0625V9H35.3496V5.05078C35.3496 4.79297 35.3125 4.59375 35.2383 4.45312C35.168 4.30859 35.0664 4.20898 34.9336 4.1543C34.8008 4.0957 34.6387 4.06641 34.4473 4.06641C34.2168 4.06641 34.0293 4.10547 33.8848 4.18359C33.7402 4.26172 33.6289 4.37109 33.5508 4.51172C33.4766 4.64844 33.4258 4.81055 33.3984 4.99805C33.3711 5.18555 33.3574 5.39062 33.3574 5.61328Z" fill="#6B7A99"/>
</svg>
