<svg width="23" height="23" viewBox="0 0 23 23" fill="none" xmlns="http://www.w3.org/2000/svg">
<path d="M20.2086 7.38592L14.4058 6.84774L12.1008 1.49523C11.9394 1.12044 11.408 1.12044 11.2466 1.49523L8.94158 6.84769L3.13879 7.38592C2.73246 7.42358 2.56828 7.92897 2.87482 8.19828L7.25304 12.0445L5.97174 17.7296C5.88202 18.1277 6.31195 18.44 6.66279 18.2317L11.6737 15.2563L16.6846 18.2317C17.0355 18.44 17.4653 18.1277 17.3756 17.7296L16.0943 12.0445L20.4726 8.19828C20.7791 7.92897 20.6149 7.42358 20.2086 7.38592Z" fill="#A61473"/>
<path d="M12.9389 3.44163L12.1007 1.49523C11.9393 1.12044 11.4079 1.12044 11.2466 1.49523L8.94154 6.84769L3.13879 7.38592C2.73246 7.42359 2.56828 7.92897 2.87482 8.19828L7.25304 12.0445L5.97174 17.7296C5.88202 18.1277 6.31195 18.44 6.66279 18.2317L7.32971 17.8357C8.42305 10.7582 11.4968 5.56279 12.9389 3.44163Z" fill="#A61473"/>
</svg>
