<svg width="20" height="18" viewBox="0 0 20 18" fill="none" xmlns="http://www.w3.org/2000/svg">
<path d="M18.887 12.7067H5.98404L6.6319 11.4489L17.3963 11.4304C17.7603 11.4304 18.0723 11.1825 18.1373 10.8397L19.628 2.88606C19.6671 2.67746 19.6085 2.46267 19.4655 2.29951C19.3949 2.21921 19.3067 2.15453 19.2072 2.10995C19.1077 2.06537 18.9992 2.04196 18.8892 2.04134L5.19534 1.99797L5.07834 1.47337C5.00467 1.13879 4.68832 0.895081 4.32864 0.895081H0.981018C0.778164 0.895081 0.583618 0.971892 0.440179 1.10862C0.296739 1.24534 0.216156 1.43078 0.216156 1.62414C0.216156 1.8175 0.296739 2.00294 0.440179 2.13967C0.583618 2.27639 0.778164 2.35321 0.981018 2.35321H3.70895L4.22031 4.67051L5.47919 10.4803L3.85846 13.0021C3.77429 13.1104 3.7236 13.2389 3.71211 13.3732C3.70062 13.5076 3.7288 13.6423 3.79346 13.7621C3.92346 14.0079 4.18564 14.1628 4.47598 14.1628H5.8367C5.54661 14.53 5.38993 14.9774 5.39035 15.4371C5.39035 16.6061 6.38705 17.5561 7.61343 17.5561C8.83981 17.5561 9.83652 16.6061 9.83652 15.4371C9.83652 14.9765 9.67618 14.5284 9.39017 14.1628H12.8808C12.5907 14.53 12.434 14.9774 12.4344 15.4371C12.4344 16.6061 13.4312 17.5561 14.6575 17.5561C15.8839 17.5561 16.8806 16.6061 16.8806 15.4371C16.8806 14.9765 16.7203 14.5284 16.4343 14.1628H18.8892C19.3095 14.1628 19.6541 13.8365 19.6541 13.4337C19.6528 13.2406 19.5714 13.0557 19.4277 12.9195C19.284 12.7833 19.0897 12.7068 18.887 12.7067V12.7067ZM5.51385 3.43544L17.99 3.47468L16.7679 9.99701L6.96774 10.0135L5.51385 3.43544ZM7.61343 16.0897C7.23642 16.0897 6.92874 15.7965 6.92874 15.4371C6.92874 15.0777 7.23642 14.7845 7.61343 14.7845C7.99045 14.7845 8.29813 15.0777 8.29813 15.4371C8.29813 15.6102 8.22599 15.7762 8.09758 15.8986C7.96918 16.021 7.79502 16.0897 7.61343 16.0897V16.0897ZM14.6575 16.0897C14.2805 16.0897 13.9728 15.7965 13.9728 15.4371C13.9728 15.0777 14.2805 14.7845 14.6575 14.7845C15.0345 14.7845 15.3422 15.0777 15.3422 15.4371C15.3422 15.6102 15.2701 15.7762 15.1417 15.8986C15.0133 16.021 14.8391 16.0897 14.6575 16.0897V16.0897Z" fill="#4D4D4D"/>
</svg>
