<svg width="28" height="28" viewBox="0 0 28 28" fill="none" xmlns="http://www.w3.org/2000/svg">
<path fill-rule="evenodd" clip-rule="evenodd" d="M14 4.66666C8.84796 4.66666 4.66663 8.84799 4.66663 14C4.66663 19.152 8.84796 23.3333 14 23.3333C19.152 23.3333 23.3333 19.152 23.3333 14C23.3333 8.84799 19.152 4.66666 14 4.66666ZM11.4706 18.004L8.11996 14.6533C7.94519 14.4789 7.84697 14.2422 7.84697 13.9953C7.84697 13.7484 7.94519 13.5117 8.11996 13.3373C8.48396 12.9733 9.07196 12.9733 9.43596 13.3373L12.1333 16.0253L18.5546 9.60399C18.9186 9.23999 19.5066 9.23999 19.8706 9.60399C20.2346 9.96799 20.2346 10.556 19.8706 10.92L12.7866 18.004C12.432 18.368 11.8346 18.368 11.4706 18.004Z" fill="#C3CAD9"/>
</svg>
