<svg width="19" height="19" viewBox="0 0 19 19" fill="none" xmlns="http://www.w3.org/2000/svg">
<path d="M9.32772 16.4199C9.25404 16.4188 9.18187 16.3989 9.11801 16.3621C9.03846 16.3259 7.24509 15.3063 5.42278 13.672C2.92796 11.4231 1.66248 9.18858 1.66248 7.01917C1.66182 6.1216 1.94912 5.24749 2.48216 4.52534C3.01519 3.80318 3.76583 3.27107 4.62374 3.00722C5.48166 2.74337 6.40159 2.7617 7.24831 3.05952C8.09503 3.35734 8.82388 3.91893 9.32772 4.66175C9.83156 3.91893 10.5604 3.35734 11.4071 3.05952C12.2539 2.7617 13.1738 2.74337 14.0317 3.00722C14.8896 3.27107 15.6402 3.80318 16.1733 4.52534C16.7063 5.24749 16.9936 6.1216 16.993 7.01917C16.993 9.18858 15.7275 11.4231 13.2327 13.672C11.4104 15.3063 9.61697 16.3259 9.53743 16.3621C9.47357 16.3989 9.4014 16.4188 9.32772 16.4199ZM5.85667 3.69274C4.97444 3.69274 4.12835 4.0432 3.50453 4.66703C2.8807 5.29086 2.53024 6.13695 2.53024 7.01917C2.53024 11.1627 8.15624 14.7784 9.32772 15.4799C10.4992 14.7784 16.1252 11.1627 16.1252 7.01917C16.1269 6.24893 15.8612 5.50198 15.3735 4.90579C14.8859 4.3096 14.2064 3.90112 13.4511 3.75007C12.6959 3.59901 11.9116 3.71474 11.2321 4.07751C10.5526 4.44027 10.0201 5.02758 9.72544 5.73922C9.69431 5.8194 9.63968 5.88829 9.5687 5.93687C9.49773 5.98545 9.41373 6.01145 9.32772 6.01145C9.24171 6.01145 9.15771 5.98545 9.08673 5.93687C9.01576 5.88829 8.96112 5.8194 8.92999 5.73922C8.67714 5.13268 8.25031 4.61463 7.70334 4.25041C7.15638 3.8862 6.5138 3.69215 5.85667 3.69274Z" fill="white"/>
</svg>
