<svg width="23" height="23" viewBox="0 0 23 23" fill="none" xmlns="http://www.w3.org/2000/svg">
<path d="M19.6693 7.59784L13.8665 7.05965L11.5615 1.70715C11.4001 1.33236 10.8687 1.33236 10.7073 1.70715L8.4023 7.05961L2.59952 7.59784C2.19319 7.6355 2.02901 8.14089 2.33554 8.4102L6.71376 12.2564L5.43247 17.9415C5.34274 18.3396 5.77267 18.6519 6.12351 18.4436L11.1344 15.4682L16.1453 18.4436C16.4962 18.6519 16.9261 18.3396 16.8364 17.9415L15.555 12.2564L19.9333 8.4102C20.2398 8.14089 20.0756 7.6355 19.6693 7.59784Z" fill="#A61473"/>
<path d="M12.3997 3.65354L11.5614 1.70715C11.4 1.33236 10.8687 1.33236 10.7073 1.70715L8.40226 7.05961L2.59952 7.59784C2.19319 7.6355 2.02901 8.14089 2.33554 8.4102L6.71376 12.2564L5.43247 17.9415C5.34274 18.3396 5.77267 18.6519 6.12351 18.4436L6.79043 18.0476C7.88377 10.9701 10.9575 5.77471 12.3997 3.65354Z" fill="#A61473"/>
</svg>
